<svg width="20" height="6" viewBox="0 0 20 6" fill="none" xmlns="http://www.w3.org/2000/svg">
<path d="M14.6667 3C14.6667 2.38116 14.9125 1.78767 15.3501 1.35008C15.7877 0.912498 16.3812 0.666666 17 0.666666C17.6188 0.666666 18.2123 0.912498 18.6499 1.35008C19.0875 1.78767 19.3333 2.38116 19.3333 3C19.3333 3.61884 19.0875 4.21233 18.6499 4.64991C18.2123 5.0875 17.6188 5.33333 17 5.33333C16.3812 5.33333 15.7877 5.0875 15.3501 4.64991C14.9125 4.21233 14.6667 3.61884 14.6667 3ZM7.66666 3C7.66666 2.38116 7.9125 1.78767 8.35008 1.35008C8.78767 0.912498 9.38116 0.666666 10 0.666666C10.6188 0.666666 11.2123 0.912498 11.6499 1.35008C12.0875 1.78767 12.3333 2.38116 12.3333 3C12.3333 3.61884 12.0875 4.21233 11.6499 4.64991C11.2123 5.0875 10.6188 5.33333 10 5.33333C9.38116 5.33333 8.78767 5.0875 8.35008 4.64991C7.9125 4.21233 7.66666 3.61884 7.66666 3ZM0.666664 3C0.666664 2.38116 0.912497 1.78767 1.35008 1.35008C1.78767 0.912498 2.38116 0.666666 3 0.666666C3.61884 0.666666 4.21233 0.912498 4.64991 1.35008C5.0875 1.78767 5.33333 2.38116 5.33333 3C5.33333 3.61884 5.0875 4.21233 4.64991 4.64991C4.21233 5.0875 3.61884 5.33333 3 5.33333C2.38116 5.33333 1.78767 5.0875 1.35008 4.64991C0.912497 4.21233 0.666664 3.61884 0.666664 3Z" fill="#0A1F32"/>
</svg>
