<svg width="30" height="30" viewBox="0 0 30 30" fill="none" xmlns="http://www.w3.org/2000/svg">
<path d="M20 21.25V23.75H2.5V21.25C2.5 21.25 2.5 16.25 11.25 16.25C20 16.25 20 21.25 20 21.25ZM15.625 9.375C15.625 8.50971 15.3684 7.66385 14.8877 6.94439C14.4069 6.22492 13.7237 5.66417 12.9242 5.33303C12.1248 5.0019 11.2451 4.91526 10.3965 5.08407C9.54781 5.25288 8.76826 5.66956 8.15641 6.28141C7.54455 6.89327 7.12787 7.67282 6.95906 8.52148C6.79025 9.37015 6.87689 10.2498 7.20803 11.0492C7.53916 11.8487 8.09992 12.532 8.81938 13.0127C9.53885 13.4934 10.3847 13.75 11.25 13.75C12.4103 13.75 13.5231 13.2891 14.3436 12.4686C15.1641 11.6481 15.625 10.5353 15.625 9.375ZM19.925 16.25C20.6934 16.8447 21.3222 17.6005 21.7671 18.4644C22.212 19.3282 22.4621 20.2791 22.5 21.25V23.75H27.5V21.25C27.5 21.25 27.5 16.7125 19.925 16.25ZM18.75 5C17.8896 4.99521 17.0481 5.25245 16.3375 5.7375C17.0968 6.79843 17.5051 8.07036 17.5051 9.375C17.5051 10.6796 17.0968 11.9516 16.3375 13.0125C17.0481 13.4976 17.8896 13.7548 18.75 13.75C19.9103 13.75 21.0231 13.2891 21.8436 12.4686C22.6641 11.6481 23.125 10.5353 23.125 9.375C23.125 8.21468 22.6641 7.10188 21.8436 6.28141C21.0231 5.46094 19.9103 5 18.75 5Z" fill="#344756" fill-opacity="0.9"/>
</svg>
