<svg width="24" height="22" viewBox="0 0 24 22" fill="none" xmlns="http://www.w3.org/2000/svg">
<path fill-rule="evenodd" clip-rule="evenodd" d="M3.02656 10.5906C4.30067 11.0055 5.31561 12.0173 5.74032 13.3L5.78598 13.43C6.27234 14.7907 6.07483 16.2553 5.25967 17.3538C5.11125 17.5532 5.14436 17.7915 5.30077 17.9042L7.66632 19.6093C7.74966 19.6689 7.83072 19.6689 7.88096 19.6635C7.93804 19.6548 8.02138 19.6256 8.08874 19.5346L8.35247 19.1792C9.13908 18.1208 10.4063 17.4676 11.7444 17.4307C13.2468 17.4015 14.5963 18.0547 15.4366 19.2063L15.5713 19.3916C15.6386 19.4826 15.7208 19.5129 15.7791 19.5216C15.8293 19.5313 15.9115 19.5281 15.9937 19.4674L18.3467 17.7828C18.5111 17.6658 18.5476 17.4156 18.4255 17.2477L18.1286 16.8414C17.3637 15.7927 17.1365 14.4321 17.5213 13.2025C17.9391 11.8635 19.002 10.804 20.3663 10.3707L20.5958 10.297C20.7796 10.2396 20.8789 10.0229 20.8138 9.82358L19.9154 7.0925C19.8731 6.96467 19.7863 6.90725 19.7384 6.88341C19.6699 6.84983 19.5957 6.84441 19.5249 6.86716L19.1367 6.98958C17.809 7.40883 16.3442 7.18133 15.2196 6.37858L15.0963 6.29083C14.0277 5.52817 13.3918 4.29858 13.3964 3.00291L13.3987 2.69958C13.3987 2.5555 13.3267 2.46558 13.2834 2.42441C13.2423 2.38433 13.1726 2.33666 13.0744 2.33666L10.1666 2.33341C9.98849 2.33341 9.8435 2.49483 9.84235 2.69416L9.84121 2.95633C9.8355 4.27258 9.18589 5.52491 8.10358 6.30816L7.95631 6.41433C6.76554 7.27341 5.21286 7.51608 3.80632 7.06108C3.75266 7.04375 3.70243 7.047 3.65448 7.07083C3.61794 7.08817 3.55173 7.13258 3.51976 7.23116L2.58701 10.0435C2.51965 10.2482 2.63039 10.4617 2.83932 10.5299L3.02656 10.5906ZM7.83415 21.8334C7.27929 21.8334 6.74042 21.6622 6.28604 21.334L3.92049 19.6299C2.79023 18.8174 2.5402 17.2542 3.36221 16.1459C3.78919 15.5717 3.8771 14.834 3.62593 14.1342L3.56314 13.9522C3.35422 13.3217 2.877 12.832 2.28675 12.6402H2.28561L2.09952 12.5785C0.708956 12.1267 -0.0331325 10.7282 0.408696 9.3935L1.3403 6.58225C1.55151 5.94633 2.00704 5.43283 2.62354 5.13708C3.22635 4.84891 3.90793 4.8045 4.54498 5.01141C5.22885 5.23241 5.98806 5.11216 6.57374 4.68966L6.72102 4.5835C7.24162 4.2065 7.55558 3.59441 7.55786 2.94766L7.559 2.68658C7.56471 1.29558 8.73493 0.166748 10.1654 0.166748H10.17L13.0779 0.169998C13.7651 0.171081 14.4136 0.428915 14.9023 0.895831C15.408 1.37791 15.6843 2.0225 15.682 2.71041L15.6797 3.01266C15.6775 3.62583 15.9731 4.20541 16.4721 4.56075L16.5942 4.6485C17.1182 5.02225 17.801 5.1295 18.414 4.9345L18.8011 4.81208C19.4598 4.60408 20.1608 4.655 20.7785 4.95508C21.4121 5.26275 21.8802 5.7925 22.0948 6.44791L22.9933 9.179C23.4271 10.4985 22.6759 11.922 21.3208 12.3521L21.0913 12.4247C20.4337 12.6348 19.9165 13.1548 19.7098 13.8178C19.5203 14.4256 19.6299 15.094 20.0055 15.6075L20.3024 16.0137C21.1175 17.1317 20.8572 18.7004 19.7224 19.5118L17.3694 21.1975C16.8043 21.6027 16.1113 21.7662 15.416 21.6612C14.715 21.5539 14.1031 21.1856 13.6932 20.6244L13.5585 20.4381C13.1589 19.8921 12.5196 19.5606 11.8494 19.5963C11.1781 19.6137 10.5981 19.9159 10.2191 20.4272L9.95538 20.7826C9.54209 21.3383 8.92901 21.7012 8.23145 21.8052C8.09787 21.8247 7.96544 21.8334 7.83415 21.8334V21.8334ZM11.7001 9.37497C10.7559 9.37497 9.98757 10.1041 9.98757 11C9.98757 11.8959 10.7559 12.625 11.7001 12.625C12.6443 12.625 13.4126 11.8959 13.4126 11C13.4126 10.1041 12.6443 9.37497 11.7001 9.37497M11.7001 14.7916C9.49665 14.7916 7.70422 13.0908 7.70422 11C7.70422 8.90914 9.49665 7.20831 11.7001 7.20831C13.9035 7.20831 15.6959 8.90914 15.6959 11C15.6959 13.0908 13.9035 14.7916 11.7001 14.7916" fill="#344756"/>
</svg>
